<?xml version="1.0" encoding="utf-8"?>
<!-- Generator: Adobe Illustrator 26.0.3, SVG Export Plug-In . SVG Version: 6.00 Build 0)  -->
<svg version="1.1" xmlns="http://www.w3.org/2000/svg" xmlns:xlink="http://www.w3.org/1999/xlink" x="0px" y="0px"
	 viewBox="0 0 240 277" style="enable-background:new 0 0 240 277;" xml:space="preserve">
<style type="text/css">
	.st0{fill:#F08843;}
	.st1{fill:#FFD06D;}
</style>
<g id="Layer_1">
	<g>
		<g>
			<polygon class="st0" points="239.9,69.2 239.9,207.8 202.1,229.6 188.8,237.3 186.4,238.6 184,240.1 184,240.1 180.6,242 
				179.1,242.9 179.1,242.9 173.5,246.1 166.8,250 163,252.2 163,252.2 159.6,254.1 156.6,255.9 145.6,262.2 120,277 119.5,276.7 
				111.6,272.1 76.3,251.8 66.7,246.2 0.1,207.8 0.1,69.2 92.7,15.8 103.9,9.3 106.6,7.8 120,0 131.4,6.6 134.2,8.2 144.9,14.4 
				193.6,42.5 228.3,62.5 			"/>
		</g>
		<g>
			<path class="st1" d="M107.2,33.9c0,0,0.2-0.8,0.2-0.8c0,0,0.1-0.2,0.1-0.2l0,0c0,0-0.1,0,0,0c0.3-1.1,0.7-2.5,1-3.5l9.2-3.3
				c-0.2,2.2-0.3,4.4-0.4,6.7c-3.6,1.9-7.2,3.9-10.8,5.9C106.7,37,107,35.5,107.2,33.9c-0.3,1.6-0.5,3.2-0.8,4.8
				c3.8-1.9,7.6-3.7,11.4-5.6l0.2-0.1c0.2-2.5,0.3-5,0.4-7.5l0-0.5l-0.4,0.2c0,0-9.5,3.9-9.5,3.9c-0.3,1.1-0.6,2.4-0.9,3.6l0,0l0,0
				c0,0,0.1,0,0.1,0c0,0-0.1,0.2-0.1,0.2C107.4,33.1,107.2,33.9,107.2,33.9z"/>
			<path class="st1" d="M118.4,23.1c0-2,0.1-4,0.1-6l0,0c-0.9,0.2-1.8,0.5-2.5,0.9c0.7-0.5,1.8-0.7,2.5-0.9
				c-0.1,1.9-0.3,3.8-0.5,5.7c-2.7,0.9-5.3,1.9-7.9,2.9c1.3-3,3-6,5.9-7.7c-3.3,1.9-5.4,5.4-7,8.8c3.1-1.1,6.2-2.3,9.3-3.6
				L118.4,23.1z"/>
			<path class="st1" d="M105.8,41.4l0,0.2c-0.2,3.2-0.2,6.3-0.1,9.5c2-1.3,4-2.5,5.9-3.8c1.8-1.2,3.6-2.4,5.4-3.5
				c-3.6,2.1-7.2,4.2-10.7,6.3c0-1.3,0-2.6,0-3.9c0-1.4,0.1-2.8,0.2-4.3c3.2-1.7,7.5-4,10.7-5.7c-0.1,2.3-0.2,5.4-0.2,7.6
				c0.2-2.5,0.5-5.8,0.7-8.3c-3.5,1.7-8.2,4.1-11.7,5.9L105.8,41.4z"/>
			<path class="st1" d="M105.3,32.2c0.7-3.2,1.6-6.3,3-9.2c-1.6,2.6-2.6,5.5-3.4,8.5c-3.1-1.5-6.3-2.9-9.4-4.4
				c3.2-1.9,6.5-3.9,9.6-5.8l3.2,1.7l-3.1-2l-0.1,0c-3.5,1.9-7.1,3.9-10.5,5.9l-0.5,0.3l0.6,0.3C98.2,29,101.8,30.6,105.3,32.2z"/>
			<path class="st1" d="M96.9,51.4l6.7-0.2l0.2,0l0-0.2l-0.2-5.6l-0.2,5.5l-6.5-0.1l-6.3,0c0-3-0.1-6.1,0-9.1
				c3.8,1.1,9.2,2.6,12.9,3.7c-4.5-1.5-9-3.1-13.5-4.5c-0.1,3.5-0.2,7.1-0.1,10.6l0.3,0L96.9,51.4z"/>
			<path class="st1" d="M108,71c2.5-1.5,5-3,7.6-4.6c-2.4,1.2-4.8,2.5-7.2,3.8c-0.3-2.1-0.7-4.9-1-7c2.9-1.4,5.7-2.9,8.5-4.4
				c-0.1,2.5-0.2,5.1-0.2,7.6l-0.1-0.1c0,0,0.2,0.1,0.1,0.1c0.3-2.8,0.5-5.6,0.7-8.5c-3.2,1.5-6.4,3.1-9.6,4.7l-0.2,0.1
				c0,0,0,0.2,0,0.2C107,65.4,107.5,68.6,108,71z"/>
			<path class="st1" d="M118.6,59.3c2,1.2,4.5,2.9,6.6,4.1c-0.9,2.2-1.7,4.4-2.6,6.5c-1.4-0.8-2.8-1.6-4.2-2.4
				C118.4,65.5,118.5,61.4,118.6,59.3c-0.2,2.1-0.6,6.4-0.8,8.5l0,0.2c1.6,0.9,3.2,1.9,4.8,2.8l0.3,0.2c1-2.6,2-5.2,2.9-7.8
				C124,62.2,120.4,60.3,118.6,59.3z"/>
			<path class="st1" d="M104.3,61.6c-3.7,1-9.4,2.6-13.2,3.8c-0.4-3.8-0.5-7.6-0.5-11.4c3.9,0,9.1-0.1,12.9-0.2
				C103.7,56,104.1,59.3,104.3,61.6c-0.2-2.5-0.3-5.8-0.5-8.3c-4-0.1-9.6-0.1-13.6-0.1l-0.3,0l0,0.3c0,4.1,0.2,8.1,0.7,12.2l0,0.4
				c0,0,0.3-0.1,0.3-0.1C94.7,64.8,100.6,62.9,104.3,61.6z"/>
			<path class="st1" d="M103.8,43.2c0.1-3,0.3-6,0.8-8.9c-0.6,2.7-1,5.5-1.2,8.3c-3.7-1.2-8.8-2.8-12.6-4c0.3-3.2,0.9-6.4,1.6-9.5
				c3.2,1.4,9.1,3.9,12.1,5.2c-3-1.5-9.2-4.4-12.2-5.9l-0.3-0.2c-0.9,3.5-1.6,7-2,10.6l0,0.3l0.3,0.1C94.3,40.3,99.9,42,103.8,43.2z
				"/>
			<path class="st1" d="M106.4,60.8c0,0,0.4-0.2,0.4-0.2c2.3-1.2,7-3.7,9.2-5c-2.3,1-6.7,3.1-9.1,4.3c-0.1-1.9-0.3-4.5-0.5-6.4
				c0.8-0.5,1.7-1,2.5-1.5c2.4-1.5,5.1-3.2,7.6-4.8l-0.2,4.2l-0.1,4.6l-0.2-0.4l0.2,0.5l0,0.1l0-0.1c0,0,0.4-4.7,0.4-4.7
				c0-0.3,0.4-5.1,0.4-5.2c-2,1.1-3.9,2.4-5.8,3.5c-1.6,1-3.8,2.3-5.4,3.3l-0.2,0.1c0,0,0,0.2,0,0.2C106,55.6,106.2,58.6,106.4,60.8
				z"/>
			<path class="st1" d="M140.7,67c-3.9-1.8-7.8-3.5-11.8-5.2c0.8-2.7,1.6-5.4,2.2-8.1c3.4,0.8,9.7,2.3,12.9,3.1
				c-3.2-1-9.8-2.8-13-3.7c0.2-0.6,0.4-1.3,0.6-2c3.7,1.1,9,2.5,12.8,3.6l0.3,0.1c0,0,0.1-0.3,0.1-0.3c0.7-4.3,0.8-8.6,0.7-12.9
				c-4.3,0.1-8.6,0.1-13,0.2c-0.2,3.8-0.7,7.6-1.5,11.4l-0.3-0.1l-0.1,0.3c-0.7,3-1.6,6-2.5,8.9l0.3,0.1c4.2,1.8,8.4,3.6,12.6,5.3
				c1.4-3.5,2.4-7.1,3-10.9C143.2,60.3,142.1,63.7,140.7,67z M132.9,42.2c3.9,0.1,7.9,0,11.8,0c0.1,3.9,0,7.9-0.6,11.8
				c-3.8-0.9-9-2.2-12.6-3.1l-0.1,0C132.2,48,132.6,45.1,132.9,42.2z"/>
			<path class="st1" d="M109.7,21.3c0,0,0.2-0.3,0.2-0.3c4.6-7.3,12.8-8.6,18.2-1.3l0,0.1l0.1,0l2.3-1.3l-2.4,1.1
				c-3.2-4.7-7.6-6.1-11.7-4.8c1.2-0.7,2.3-1.4,3.5-2.1l10.5,5.7c-3.1-1.9-7.4-4.5-10.5-6.3c-4.2,2.4-8.4,4.8-12.6,7.2l-0.5,0.3
				l0.5,0.3C107.6,20,109.6,21.2,109.7,21.3z M109.5,20.4l-1.2-0.7c1.2-0.7,2.5-1.5,3.7-2.2C111.1,18.3,110.3,19.2,109.5,20.4z"/>
			<path class="st1" d="M132.2,30.4L132.2,30.4c0.3,1.7,0.4,3.5,0.5,5.3c-0.1-1.8-0.1-3.8-0.5-5.1c3.3-0.4,7.9-1,11.2-1.5
				c0.6,3.3,1,6.7,1.2,10.1c-3.9,0.1-8,0.2-11.8,0.3l0-2.5c0,0.7,0,2.5,0,2.5c4,0,8.1,0.1,12.1,0.2l0.3,0l0-0.3
				c-0.1-3.7-0.6-7.4-1.3-11.1c-2,0.3-4,0.7-6,1.1L132.2,30.4z"/>
			<path class="st1" d="M132.8,36.7l0,0.3C132.8,36.8,132.8,36.7,132.8,36.7z"/>
			<path class="st1" d="M132.8,36.7c0-0.3,0-0.7,0-1C132.8,36,132.8,36.3,132.8,36.7z"/>
			<path class="st1" d="M128,64.4L128,64.4l-0.1,0.3C127.9,64.7,128.1,64.4,128,64.4c3.8,1.8,7.6,3.6,11.4,5.3
				c-1.3,2.6-2.9,5.1-4.7,7.4c-2.9-1.6-6.8-3.9-9.6-5.4c0.8-2.1,1.8-4.9,2.5-7l0.2,0.1l-0.2-0.1l0,0c0,0,0,0,0,0
				c-0.9,2.1-2.2,5.1-3,7.2c2.9,1.8,7.1,4.2,10.1,6l0.2,0.1l0.2-0.2c2.1-2.5,3.8-5.4,5.2-8.3C136.2,67.7,132.1,66,128,64.4L128,64.4
				z"/>
			<path class="st1" d="M119,56.4c0.2-2.2,0.3-5.1,0.5-7.4c2.5,2.2,5.7,5,8.1,7c-0.4,1.6-0.8,3.2-1.3,4.9c0.5-1.6,1.2-3.3,1.7-5.1
				c-2.5-2.3-6-5.5-8.6-7.9l-0.5-0.5c0,0,0,0.7,0,0.7c-0.1,2.4-0.3,5.9-0.4,8.3l0,0.2c0,0,0.1,0.1,0.1,0.1c1.9,1.1,5.8,3.1,7.7,4.1
				C124.5,59.8,120.9,57.6,119,56.4z"/>
			<path class="st1" d="M104.6,64c0.3,2.2,0.7,5.4,1,7.7c-3.4,1.8-8.1,4.4-11.5,6.4c-1.6-2.9-2.1-6.4-2.6-9.7
				C95.3,67.2,100.9,65.3,104.6,64c-4,1.1-9.8,2.7-13.8,3.9c0.6,3.6,0.9,7.5,2.9,10.8l0.2,0.2c0,0,0.3-0.2,0.3-0.2
				c3.5-2,8.5-4.9,11.9-6.9C105.7,69.6,105.1,66.4,104.6,64z"/>
			<path class="st1" d="M129,21.6c1.1,2.1,2,4.4,2.5,6.8c3.9-0.6,7.8-1.4,11.7-2.1c-3.3,0.4-8,1-11.2,1.4c-0.5-2-1.1-4-2.1-5.8
				l3.2-1.6c3.3,1.8,6.6,3.6,10,5.4l0.2,0.6l-0.1-0.6l0,0c-3.2-2-6.5-4-9.8-6l-0.1-0.1l-0.2,0.1l-3.7,1.8L129,21.6z"/>
			<path class="st1" d="M129.9,29.9c-2.7-1.3-6.6-3.1-9.3-4.5l-0.5-0.2l0,0.5l-0.4,7.8l0,0.2c3.1,2.2,7.4,5,10.6,7.1
				c-2.9-2.2-7.1-5.3-10-7.4l0.4-7.1c2.6,1.2,6.1,2.8,8.7,4c0.7,3.5,0.8,7,0.9,10.6C130.5,37.2,130.6,33.5,129.9,29.9z"/>
			<path class="st1" d="M119.7,45l0.5-7.9c2.9,2.1,6.8,4.8,9.7,6.7c-0.3,3.2-0.8,6.3-1.4,9.4c0.9-3.2,1.5-6.4,1.9-9.7
				c-3-2.2-7.2-5.2-10.3-7.4l-0.5-0.4l0,0.6l-0.4,8.7c0,0,0,0.1,0,0.1c2.4,2,7,6,9.4,8L119.7,45z"/>
			<path class="st1" d="M123.8,18.6c0.2,0.1,0.4,0.3,0.5,0.4C124.2,18.9,124,18.8,123.8,18.6z"/>
			<path class="st1" d="M124.4,19.1c2.1,2,3.4,4.7,4.1,7.4c-2.5-1.3-5.1-2.5-7.7-3.6l0.1-5.7c1,0.2,2,0.7,2.9,1.4
				c-0.9-0.7-1.8-1.2-2.9-1.5l-0.1,0l0,0.1l-0.6,5.9l0,0.2l0.2,0.1c2.9,1.5,5.9,2.9,8.9,4.1C128.3,24.4,126.8,21.3,124.4,19.1z"/>
			<path class="st1" d="M121.9,123.4c-0.3,0.2-0.6,0.4-0.9,0.6C121.3,123.9,121.6,123.7,121.9,123.4z"/>
			<path class="st1" d="M120.9,124C120.9,124,120.9,124,120.9,124c-0.2-2-0.3-4.1-0.4-6.1c1.4-0.6,2.7-1.3,4-1.9
				c-0.1,2.4-0.5,4.9-2,6.8c1.8-2.1,2.5-5.1,2.7-7.9c-1.7,0.8-3.5,1.7-5.1,2.6l-0.2,0.1l0,0.2C120.3,119.9,120.7,121.9,120.9,124z"
				/>
			<path class="st1" d="M122.5,122.8c-0.2,0.2-0.4,0.5-0.6,0.7C122.1,123.2,122.3,123,122.5,122.8z"/>
			<path class="st1" d="M120.9,124C121,124,121,124,120.9,124C121,124,121,124,120.9,124C120.9,124,120.9,124,120.9,124z"/>
			<path class="st1" d="M109.7,114.3c-0.5-2.3-0.8-4.5-0.9-6.9c-0.1,2.2,0,4.4,0.4,6.6c-3.4,1-8.1,2.5-11.6,3.6
				c0-0.5-0.1-1.4-0.1-1.4c0-1.2-0.1-4.1-0.2-5.5c3.4-0.9,8.1-2.3,11.5-3.2c-3.6,0.8-8.5,1.9-12.1,2.8c0.1,2.3,0.1,5.6,0.2,7.9
				l0,0.4l0.4-0.1C101,117.2,106.1,115.6,109.7,114.3z"/>
			<path class="st1" d="M139.4,105.7l-6.3,0.4c-1.9,0.1-4.6,0.4-6.5,0.5l0,0.2l0.7,4.2l-0.3-4c1.9-0.1,4.4-0.2,6.2-0.2l6-0.3
				c0,1.7,0.1,3.5,0.1,5.2c-3.9-0.3-8-0.4-12-0.6c4.1,0.5,8.5,0.9,12.6,1.3c0-2.2-0.1-4.4-0.1-6.6L139.4,105.7z"/>
			<path class="st1" d="M111.7,120.5c-0.7-1.2-1.2-2.5-1.7-3.9c0.3,1.3,0.7,2.6,1.3,3.8c-1.6,1.1-3.9,2.6-5.5,3.7l-5.2,3.6
				c-1.2-2.1-2.1-4.4-2.6-6.8c3.5-1.2,8.5-3,12-4.2c-4.2,1.2-8.5,2.4-12.7,3.8c0.5,2.9,1.5,5.7,3.1,8.2l0.3-0.2l5.5-3.9
				C107.8,123.3,110.1,121.7,111.7,120.5z"/>
			<path class="st1" d="M126.3,104.5L126.3,104.5l0.2,0.1c2.1-0.1,4.3-0.2,6.4-0.3l6.4-0.4l0.4,0c-0.3-3.2-0.8-6.4-1.8-9.5
				c-4.1,0.4-9.7,1.1-13.9,1.6c3.9-0.3,9.5-0.7,13.5-1c0.8,2.7,1.2,5.4,1.5,8.2l-6,0.4c-2.1,0.1-4.2,0.3-6.3,0.5
				c-0.1-0.1-0.2-0.2-0.2-0.2c-0.4-2.2-1.5-5.4-2.4-7.8c0.8,2.7,1.5,5.3,2.1,8C126,104.2,126.3,104.5,126.3,104.5z"/>
			<path class="st1" d="M124.9,112.7c-1.2,0.5-3.4,1.5-4.7,2.1c-0.1-1-0.2-2.1-0.3-3.1c1.5-1.2,2.9-2.3,4.3-3.5
				C124.5,109.6,124.7,111.1,124.9,112.7c0.1-1.9-0.1-3.7-0.3-5.6l-0.4,0.3c-1.5,1.1-3,2.3-4.5,3.4l0,0l-0.8-0.9
				c0.2,1.9,0.5,3.9,0.7,5.7C121.2,114.8,123.4,113.6,124.9,112.7z"/>
			<path class="st1" d="M109,105.1c0.1-2.5,0.3-5.1,0.7-7.6c-0.5,2.4-0.9,4.8-1.1,7.3c-3.3,0.8-7.9,1.9-11.4,2.8
				c0-1.4-0.1-2.8-0.1-4.2L97,99c3.7-0.4,9-1.1,12.7-1.5c-4,0.3-9.4,0.6-13.4,1c0.1,2.8,0.1,6.7,0.3,9.5l0,0.4c0,0,0.4-0.1,0.4-0.1
				C100.6,107.4,105.6,106.1,109,105.1z"/>
			<path class="st1" d="M111.9,97.2l-0.1,0.5c-0.5,2.6-0.8,5.2-0.8,7.8c1.8,0.8,3.8,1.5,5.6,2.2c-1.7-0.8-3.4-1.7-5.1-2.5
				c0.2-2.3,0.5-4.6,0.9-6.9c1,0.6,2,1.3,3.1,1.9c0.3,2.5,0.8,5,1.2,7.6c-0.2-2.4-0.4-5.6-0.6-7.9C114.6,99,113.3,98.1,111.9,97.2z"
				/>
			<path class="st1" d="M123.9,104.9c-1.3,0.9-3.1,2.3-4.5,3.3c-0.2-2.8-0.5-5.5-0.8-8.3c0.9-0.9,1.9-1.8,2.8-2.8
				C122.3,99.6,123.1,102.2,123.9,104.9c-0.4-2.9-1.2-5.7-2.1-8.4l-0.1-0.4l-0.4,0.3c-1.2,1.1-2.3,2.2-3.5,3.3l0,0.2
				c0.4,3.1,0.7,6.2,1.2,9.3C120.5,107.8,122.4,106.2,123.9,104.9z"/>
			<path class="st1" d="M138.5,123.1l-11.3-4.4l-0.1,0c0.3-1.7,0.4-3.4,0.4-5l12,0.8l-12.1-1.1l-0.1,0c0,0,0,0.1,0,0.1
				c0,2.2-0.2,4.7-1,6.9l-0.3,0.8l-0.1,0.2l0,0c-0.6,1.4-1.4,2.7-2.5,3.7c-3.5,3.1-8.2,0.8-10.4-2.7l-0.2-0.2l-0.2,0.2l-11,7.6
				l-0.3,0.2c2.3,3.2,5.3,5.8,8.8,7.5c6.9,3.5,15.6,2.3,21.4-2.8c3-2.5,5.2-5.8,6.6-9.5l-0.3-0.1l-11.3-4.2l0.7-1.9l11.3,4.2l0.1,0
				c0,0,0-0.1,0-0.1c0.8-2.9,1-5.8,0.9-8.8C139.6,117.4,139.3,120.3,138.5,123.1z M131.1,134.4c-5.6,4.9-14,5.9-20.7,2.6
				c-3.2-1.5-6-3.9-8.2-6.8l10.4-7.3c1.2,1.6,2.8,3.1,4.8,3.8c4.2,1.3,7.4-1.6,8.8-5.2l11,4.2C135.9,129,133.8,132.1,131.1,134.4z"
				/>
			<path class="st1" d="M111.8,113.5c0-0.1,0.2-0.7,0.2-0.8l-0.2,0.4c-0.1-0.8-0.1-1.6-0.2-2.4c0-0.7-0.1-1.4-0.1-2.1
				c1.7,0.8,3.4,1.6,5.1,2.3c0.1,1.2,0.3,2.4,0.5,3.6c-1.5-0.5-3.8-1.3-5.1-1.7c1.3,0.6,4,1.8,5.3,2.4l0.4,0.2
				c-0.1-1.6-0.3-3.3-0.5-4.9c-2.1-0.9-4.2-1.9-6.3-2.7l0,0.4C111.1,109.9,111.3,111.7,111.8,113.5z"/>
			<path class="st1" d="M117.6,123.8c-0.1-0.1-0.2-0.1-0.3-0.2C117.4,123.7,117.5,123.7,117.6,123.8z"/>
			<path class="st1" d="M118.4,124.1c-0.2-0.1-0.5-0.2-0.8-0.3C117.9,123.9,118.1,124.1,118.4,124.1z"/>
			<path class="st1" d="M118,117.4c-1.6-0.7-3.3-1.4-5-2.1c-0.1,0-0.1-0.1-0.2,0c-0.2,0.1-0.6,0.2-0.8,0.3c1,3.1,2.6,6.2,5.4,8
				c-2.6-1.6-3.8-4.7-4.6-7.6l0.1,0c1.5,0.6,3.1,1.2,4.6,1.8c0.3,2.1,0.7,4.2,1,6.3c0,0,0,0,0,0C118.3,121.9,118.1,119.7,118,117.4z
				"/>
			<path class="st1" d="M118.5,124.2C118.5,124.2,118.5,124.2,118.5,124.2C118.4,124.1,118.4,124.1,118.5,124.2
				C118.4,124.1,118.4,124.2,118.5,124.2z"/>
			<path class="st1" d="M205.1,85.2l0.3-3.6l-0.6,3.5l-0.1,0l0,0.1c0,0,0,0.2,0,0.2c-0.3,1.5-0.9,3.4-1.3,5
				c-1.2-1.5-2.5-2.9-3.7-4.4c-1.1-1.4-2.7-3.3-3.9-4.6c0.7-2.1,1.4-4.2,2.1-6.3c2,1.8,5.5,5,7.4,6.6c-1.8-1.8-5.4-5.5-7.3-7.3
				l-0.3-0.3c-0.9,2.4-1.7,4.9-2.6,7.3l-0.1,0.2c0.7,0.8,1.4,1.7,2.1,2.5c2,2.3,4.1,4.9,6.1,7.1l0.3,0.4c0.1-0.2,0.6-3,0.7-3.3
				c0.2-0.8,0.5-2,0.5-2.8l0,0L205.1,85.2C205,85.3,205.1,85.3,205.1,85.2L205.1,85.2z"/>
			<path class="st1" d="M203.3,69.2c0.7,1.2,1.2,2.5,1.5,3.9c0.3,1.5,0.4,3,0.4,4.5c-2-2-4-3.9-6.2-5.7c0.6-1.8,1.1-3.6,1.7-5.4
				c0.6,0.4,1.5,1.1,2,1.8c-0.5-0.7-1.2-1.3-2-1.8l0,0l0,0c-0.7,1.8-1.4,3.6-2.1,5.5l0,0.1l0.1,0.1c2.3,2.4,4.7,4.7,7.2,6.9
				C205.7,75.6,205.1,72.1,203.3,69.2z"/>
			<path class="st1" d="M202.7,68.2c0.2,0.3,0.4,0.6,0.6,0.9C203.1,68.9,202.9,68.5,202.7,68.2z"/>
			<path class="st1" d="M202.8,93.8c-1,2.7-2.1,5.3-3.3,7.9c-2.3-3.4-4.8-6.7-7.2-10.1l2.3-6.9c0.6,0.7,3.8,4.3,3.8,4.3
				C199.6,90.2,201.7,92.6,202.8,93.8c-2.3-3-5.9-7.3-8.3-10.3c0,0.1-2.8,7.9-2.9,8.2c2.7,3.6,5.3,7.3,8,10.9
				C200.8,99.7,201.9,96.8,202.8,93.8z"/>
			<path class="st1" d="M221.2,73.8l0-0.4c0,0-0.4,0.1-0.4,0.1c-3.9,0.6-9.4,1.3-13.2,2c0.4,3.2,0.3,6.4-0.1,9.6
				c0.6-3,0.9-6.1,0.6-9.2c3.7-0.4,8.7-1.1,12.4-1.6c0.3,3.3,0.3,6.7,0.1,10.1c-3.4,0.2-9.9,0.6-13.1,0.8c3.3,0,10.1-0.1,13.4-0.2
				l0.3,0l0-0.3C221.5,81,221.5,77.4,221.2,73.8z"/>
			<path class="st1" d="M210.7,98.6l-6.9-0.5l-0.1,0l0,0.1l-2,5.3l2.3-5c3.3,0.4,9.7,1,13.2,1.3c-0.9,2.5-2.3,6-3.4,8.4
				c-3.5-1.4-8.6-3.4-12.1-4.7c3.7,1.7,8.8,3.9,12.5,5.5c1.2-2.8,2.8-6.6,3.8-9.4l0.2-0.4l-0.4,0L210.7,98.6z"/>
			<path class="st1" d="M190,119.8c-1.3-1.7-3.7-5.1-5.1-6.9c0.4-1.2,0.8-2.4,1.3-3.5l1.1-3.2c2.1,2.4,4.2,4.8,6.3,7.1
				C192.5,115.2,191,117.9,190,119.8c1.3-2,3-4.6,4.2-6.6c-2.3-2.8-4.8-5.6-7.2-8.4c0,0-0.2,0.6-0.2,0.6c-0.8,2.4-1.9,5.7-2.7,8.1
				c0.1,0,0.3,0,0.4-0.1C186,115.1,188.6,118.3,190,119.8z"/>
			<path class="st1" d="M176.2,114.7l0.4-0.1c1.8-0.3,3.7-0.5,5.5-0.8l0.1-0.2c0.6-2,1.9-6.1,2.5-8.1c-0.8,1.9-2.2,5.7-3,7.8
				c-1.6,0.2-3.2,0.4-4.7,0.6c0.1-2.3,0.1-4.7,0.1-7c2.3-0.4,5.3-0.9,7.6-1.3c-2.1,0.2-6.1,0.6-8.2,0.8
				C176.3,109.1,176.2,111.9,176.2,114.7z"/>
			<path class="st1" d="M200.5,105.5c-1.1,2.2-2.5,5.2-3.6,7.5c1.1-2,2.7-4.9,3.8-6.9c3.5,1.5,8.3,3.6,11.8,5.1
				c-0.8,1.8-1.5,3.5-2.3,5.2c-0.8,1.7-1.6,3.4-2.5,5.1c-3.1-2.5-7.8-6.2-10.8-8.5c3,2.6,7.6,6.6,10.7,9.2l0.3,0.2l0.2-0.3
				c2-3.6,3.7-7.3,5.2-11l0.1-0.3l-0.3-0.1C209.4,109.1,204.2,107,200.5,105.5z"/>
			<path class="st1" d="M207,87.6c3.3,0,9.7-0.1,13.2-0.2c-0.5,3.2-1.2,6.3-2.1,9.4c-3.9-0.3-9.3-0.8-13.2-1
				C205.8,93.1,206.5,90.3,207,87.6c-0.7,2.9-1.6,5.8-2.6,8.6c4.1,0.5,9.8,1,14,1.4l0.3,0l0.1-0.3c1-3.4,1.7-7,2.2-10.5l-0.3,0
				C217.2,86.9,210.4,87.3,207,87.6z"/>
			<path class="st1" d="M195.2,111.4c1-2,2.2-4.7,3.2-6.7c-0.9,1.7-2.3,4.2-3.2,5.9c-2-2.4-4.6-5.5-6.7-7.8c0.9-2.5,1.7-5.1,2.6-7.7
				c2.4,3.2,4.8,6.4,7.3,9.6c-2.4-3.6-4.9-7.3-7.5-10.9c-1.2,3.5-2.5,7.1-3.7,10.6c0.2-0.2,0.7-0.6,1.1-0.9c2,2.3,4.8,5.4,6.8,7.6
				C195,111.1,195.2,111.4,195.2,111.4z"/>
			<path class="st1" d="M161,104.7c3.3-0.1,10.1-0.4,13.4-0.5c-3.3,0-9.7-0.1-13.1,0c0-3.4,0.4-6.9,1-10.3c3.8,0.5,9.1,1.2,12.9,1.6
				c-0.4,2.9-0.7,5.8-0.8,8.7c0.3-3.1,0.8-6.1,1.3-9.1c-0.1,0-0.1,0-0.2,0c0.8-3.8,1.7-7.5,3-11.1c-4-1.7-8-3.4-11.9-5.1
				c-1.8,3.9-3.3,8-4.3,12.2l-0.1,0.3c0,0,0.3,0,0.3,0c3.9,0.5,9.3,1.1,13.2,1.5c-0.1,0.7-0.1,1.5-0.2,2.2c-4-0.6-9.4-1.3-13.4-1.9
				l-0.3,0l-0.1,0.3c-0.7,3.6-1.1,7.3-1,11l0,0.3C160.7,104.7,161,104.7,161,104.7z M166.9,79.7c3.7,1.5,7.3,3,11,4.5
				c-0.9,2.8-1.5,5.7-2,8.6c0,0,0,0,0,0c-3.7-0.6-9-1.4-12.9-1.9C163.9,87.1,165.3,83.3,166.9,79.7z"/>
			<path class="st1" d="M190.5,65.4l0.2,0.2c0,0,0.2-0.1,0.2-0.1c3-2,7.1-2.9,10.4-1.1c3.4,1.8,5.2,5.5,6,9.1l0.2,0l13-2l-12.9,1.6
				c-0.7-3.7-2.6-7.4-6-9.2c-3.4-1.9-7.6-1.1-10.8,0.9l-7.8-9c1.6-1.5,3.3-2.8,5.1-4c0.3,0.2,7.9,4.5,7.9,4.5
				c7.8,4.4,16.4,9.3,24.2,13.5l0.3,1.6l-0.2-1.6l0,0l0,0c-10.3-6.1-21.6-12.7-32-18.6l-0.2-0.1l-0.2,0.1c-2.1,1.3-4.1,2.9-5.9,4.6
				l0.2,0.3L190.5,65.4z"/>
			<path class="st1" d="M178.9,81.7c0,0,0.7-1.6,0.9-2.3C179.6,80.1,178.9,81.7,178.9,81.7c-3.5-1.6-7.2-3.2-10.8-4.8
				c0.8-1.5,1.6-3,2.4-4.5c0.8-1.5,1.7-2.9,2.6-4.4c2.9,1.7,6.9,4,9.8,5.6c-0.8,1.1-1.6,2.8-2.3,4.3c0.7-1.5,1.5-3,2.4-4.4l-0.1,0
				l-4.9-3.1c-1.7-1.1-3.4-2.2-5.2-3.3c-2.1,3.1-3.9,6.4-5.4,9.8l-0.1,0.3l0.3,0.1C171.4,78.8,175.2,80.2,178.9,81.7z"/>
			<path class="st1" d="M180.6,77.9c-0.2,0.4-0.4,0.8-0.6,1.2C180.2,78.8,180.4,78.4,180.6,77.9z"/>
			<path class="st1" d="M180,79.1c0,0-0.1,0.1-0.1,0.3C179.9,79.3,180,79.1,180,79.1z"/>
			<path class="st1" d="M174.3,114.8l0-0.2c0-2.6-0.1-5.2-0.1-7.7c-0.1,2.6-0.3,5-0.3,7.5c-3.2,0.4-7.7,0.9-11,1.4
				c-0.8-2.8-1.3-5.7-1.5-8.6c4.1-0.1,8.4-0.3,12.5-0.5c0,0,0,0.3,0,0.3c0,0,0.3,0,0.3,0c0,0-0.3,0-0.3,0l0-0.3l0,0l0,0
				c-4.2-0.1-8.7-0.1-12.9,0l-0.3,0c0.2,3.3,0.6,6.5,1.6,9.7l0.1,0.3c0,0,0.3,0,0.3,0c3.4-0.5,8.1-1.1,11.4-1.7L174.3,114.8z"/>
			<path class="st1" d="M177.1,98.9l-0.6,5.2c0,0,0,0.4,0,0.4c0.1,0,4.5-0.7,4.8-0.7c1.5-0.2,3-0.4,4.5-0.7l0-0.1
				c0.7-2.3,1.8-5.7,2.5-7.9l-2.9,7.6c-1.4,0.2-2.8,0.3-4.2,0.5l-3.9,0.5l0.4-4.6c3.5-1.3,7-2.7,10.6-4.1c-3.3,1.1-7.9,2.5-11.1,3.6
				L177.1,98.9z"/>
			<path class="st1" d="M195.6,114.8c-1.2,2.1-2.8,4.9-4,7c1.2-1.9,2.9-4.5,4.1-6.4c3,2.6,7.3,6.1,10.4,8.7c-1.8,2.8-3.4,5.9-6.1,8
				c-2.2-2.7-6.4-7.8-8.5-10.3c2,2.7,6.1,8.2,8.2,10.9c0,0,0.2,0.2,0.2,0.2c3.1-2.1,5-5.6,6.9-8.7l0.1-0.3l-0.2-0.2
				C203.5,121.2,198.9,117.4,195.6,114.8z"/>
			<path class="st1" d="M184.3,71.8c1.3-1.9,2.7-3.7,4.5-5.2c-1.7,1.3-3.2,2.9-4.6,4.7c-2.7-1.7-6.5-4.1-9.4-5.8
				c0.9-1.3,1.9-2.6,2.9-3.9c1-1.3,2.1-2.5,3.2-3.7c2.1,2.3,6,6.5,7.9,8.7c-1.9-2.3-5.8-7-7.7-9.3l-0.2-0.2
				c-2.5,2.6-4.8,5.3-6.8,8.3l-0.2,0.3c0,0,0.3,0.2,0.3,0.2C177.1,67.6,181.3,70.1,184.3,71.8z"/>
			<path class="st1" d="M181.9,81c0.1-0.3,0.2-0.6,0.3-0.9C182.1,80.4,182,80.7,181.9,81z"/>
			<path class="st1" d="M182.9,78.7c0.8-1.6,1.8-3.2,2.5-4.4l5.1-0.1c1.5,0,3.1-0.1,4.6-0.1c-0.8,2.3-1.6,4.5-2.3,6.8
				c-4,1-8,2.1-12,3.1c0.4-0.8,0.8-1.9,1.2-2.9c-0.4,1-0.8,2-1.2,3c4.2-0.9,8.4-1.7,12.6-2.6c1-2.7,1.9-5.3,2.8-8l-0.5,0
				c-3,0.2-7.2,0.5-10.2,0.7C184.4,75.6,183.6,77.1,182.9,78.7z"/>
			<path class="st1" d="M182.3,80.1c0.2-0.5,0.4-0.9,0.6-1.4C182.7,79.2,182.4,79.7,182.3,80.1z"/>
			<path class="st1" d="M179.7,86.5l0,0.1c-0.9,3.1-1.5,6.3-1.9,9.5c0.6-3.1,1.4-6.2,2.3-9.2c2.9-0.6,6.1-1.3,9-2
				c0.8-0.2,1.6-0.4,2.5-0.6l-2.6,7.5l-11.2,4.3c2.9-0.9,8.7-2.9,11.7-3.8l0-0.1l2.9-8.2l0.2-0.6c0,0-0.6,0.1-0.6,0.1
				c-4,0.9-8.2,1.9-12.2,2.9L179.7,86.5z"/>
			<path class="st1" d="M198.4,65.6c-0.6,1.5-1.5,3.8-2.1,5.4c-2.4,0-5.7,0.2-8.3,0.3C190.7,68.2,194.2,65.3,198.4,65.6
				c-4.9-0.9-9.1,2.9-11.9,6.4l0.8,0c2.8-0.1,6.6-0.3,9.4-0.6C197.2,69.7,197.9,67.4,198.4,65.6z"/>
			<path class="st1" d="M157.8,164.4c-0.2-0.2-0.5-0.5-0.6-0.9C157.4,163.9,157.6,164.2,157.8,164.4z"/>
			<path class="st1" d="M157.2,163.6c-1.2-2.5-0.5-5.4,0.4-7.9c1,1.1,2,2.2,3,3.3c-0.9,1.8-1.8,3.7-2.7,5.5c0,0,0,0,0,0
				c1-1.8,2.2-3.6,3.3-5.4l0.1-0.2l-0.1-0.2c-1.2-1.5-2.5-2.9-3.8-4.3C156.4,157.3,155.9,160.7,157.2,163.6z"/>
			<path class="st1" d="M157.9,164.5C157.9,164.5,157.9,164.5,157.9,164.5C157.9,164.5,157.9,164.5,157.9,164.5
				C157.9,164.5,157.9,164.5,157.9,164.5z"/>
			<path class="st1" d="M175.3,153.4c-0.8,2.2-1.8,4.3-3,6.3c1.3-1.8,2.3-3.7,3.2-5.7c2.7,2.1,6.5,4.9,9.2,7
				c-0.3,0.8-1.4,3.2-1.4,3.2c-0.3,0.8-1,2.2-1.4,3.1c-2.8-2.3-6.8-5.5-9.7-7.7c2.8,2.5,6.7,6,9.6,8.5l0.3,0.3l0.2-0.3
				c0.4-0.9,1.2-2.6,1.6-3.5l1.6-3.5l0.1-0.3l-0.2-0.2C182.4,158.6,178.3,155.5,175.3,153.4z"/>
			<path class="st1" d="M145.1,146.6l5.9,1.8l5.9,1.8l0.1,0l0.1-0.1l1.9-3.8l-2.1,3.5l-5.7-2l-5.5-1.8c0.7-1.6,1.4-3.2,2.1-4.8
				c3.3,1.6,8,3.6,11.3,5.1c-3.8-2-7.7-4.1-11.6-5.9c-0.9,2-1.8,4-2.7,6.1L145.1,146.6z"/>
			<path class="st1" d="M176,165.7c-1.5-1.2-3.7-3-5.2-4.2c-0.8,1.1-1.8,2.2-2.8,3.2c1-0.8,2-1.8,2.8-2.8c1.4,1.3,3.4,3,4.8,4.2
				l4.7,4c-1.4,2-3,3.8-4.9,5.4c-2.4-3.6-4.9-7.2-7.4-10.8c2.3,3.8,4.8,8,7.2,11.7c2.4-1.8,4.4-3.9,6-6.4l-0.2-0.2
				C181,169.9,176,165.7,176,165.7z"/>
			<path class="st1" d="M160.2,144.2L160.2,144.2L160.2,144.2l0.4-0.2C160.6,144,160.1,144.2,160.2,144.2c-3.2-1.7-7.8-4-11.1-5.7
				c1.3-2.4,2.8-4.8,4.5-7c3.5,1.8,8.3,4.3,11.7,6c-1.7,2-3.3,4.2-4.8,6.4c1.7-2.3,3.5-4.4,5.5-6.5c-3.7-2.1-8.8-4.8-12.6-6.8
				c-2,2.5-3.7,5.3-5.2,8.1c0,0,0.3,0.1,0.3,0.1C152,140.5,156.8,142.8,160.2,144.2z"/>
			<path class="st1" d="M160.9,147.4l-0.3,0.4c-1,1.5-1.8,3.1-2.6,4.7c1.3,1.5,2.7,3,4.1,4.5c0.7-1.3,1.3-2.8,1.9-4
				c-0.7,1.1-1.4,2.2-2,3.3c-1.1-1.3-2.1-2.6-3.2-3.8c0.6-1.3,1.3-2.6,2-3.9c0.9,1.5,2,3.3,2.9,4.6l0,0c0.1-0.1,0.2-0.2,0.3-0.2
				c0,0-0.3,0.1-0.3,0.2c-0.2-0.4-0.4-0.9-0.6-1.3c-0.4-0.9-1.6-3-2-4L160.9,147.4z"/>
			<path class="st1" d="M178.2,143.9c-0.5,2.5-1.1,5-1.9,7.5c0.9-2.2,1.6-4.5,2.2-6.9c3.2,1.8,7.7,4.2,11,5.9l-3.4,7.8
				c-2.6-1.8-7.3-5.2-9.7-6.9c2.4,1.9,7.2,5.7,9.7,7.6l0.3,0.2l0.2-0.3l3.8-8.4l0.1-0.3l-0.3-0.2
				C186.6,148.2,181.7,145.6,178.2,143.9z"/>
			<path class="st1" d="M176,143.5c-0.7,2.3-1.4,4.8-2.3,7.1c-1.7,0-3.4,0.1-5,0.1c1.1-2.1,2.2-4.2,3.3-6.3
				C173.2,144.2,174.5,143.8,176,143.5c-1.3,0.2-2.8,0.3-4.3,0.5c-1.3,2.3-2.7,4.6-3.9,6.9l-0.3,0.5l0.6,0c2-0.1,4-0.1,6-0.3
				C174.9,148.7,175.6,146.2,176,143.5z"/>
			<path class="st1" d="M165.4,150.9c-0.9-1.8-1.7-3.5-2.6-5.2c1.6-2.1,3.2-4.2,5-6.2c0.5,1.2,1.1,2.4,1.6,3.6
				C168,145.6,166.7,148.2,165.4,150.9c1.4-2.3,3.3-5.5,4.6-7.8c-0.7-1.6-1.4-3.3-2.1-4.9l-0.4,0.4c-1.9,2.2-3.8,4.5-5.4,7
				C163.2,147.4,164.3,149.2,165.4,150.9z"/>
			<path class="st1" d="M162.5,167.8c1.3-0.3,2.5-0.9,3.5-1.6c0-0.1,7.3,11.6,7.2,11.2c-6.3,3.9-14.7,4.6-21.2,0.8
				c-6.4-3.6-9.9-11-9.9-18.3c4,0.1,8,0.2,11.9,0.3c0,0.7,0,1.5,0.2,2.2c0.5,3.6,3.9,6.2,7.5,5.5c-3.6,0.7-6.9-1.9-7.4-5.5
				c-0.1-0.7-0.2-1.5-0.2-2.2l0.3,0l0-0.3c0-0.2,0.1-2.6,0.1-2.8l0,0c0.3-1.6,0.9-3.3,1.5-4.8l0-0.1l-0.1,0l-11.6-3.8
				c0,0-0.2,0-0.2,0c-1.3,2.8-2.3,5.8-2.6,9l0.3,0l11.9,0.4l-0.1,1.8c-4-0.1-8-0.3-12-0.4l-0.3,0c0,0,0,0.3,0,0.3
				c-0.1,7.5,3.6,15.4,10.4,19c6.7,3.8,15.2,2.9,21.6-1.1c0,0-7.3-11.2-7.3-11.2C165,166.9,163.8,167.5,162.5,167.8z M144.4,148.8
				c1.3,0.4,11,3.6,11.4,3.5c-0.6,1.5-1.1,3.2-1.5,4.8l-0.2,0l-12-0.3c0.2-1.4,0.4-2.7,0.8-4.1C143.3,151.4,143.9,150.1,144.4,148.8
				z"/>
			<path class="st1" d="M161.7,167.9c0.3,0,0.5-0.1,0.8-0.2C162.2,167.8,162,167.9,161.7,167.9z"/>
			<path class="st1" d="M170.4,158c0-0.2,0-0.5,0.1-0.7l-0.1,0c-1.5-0.1-3.7-0.2-5.3-0.3c0.6-1,1.2-2.1,1.7-3.1
				c1.9-0.1,3.7-0.1,5.6-0.2C171.9,155.2,171.2,156.6,170.4,158c1.1-1.5,2-3.2,2.8-4.8c-2.2,0-4.4,0-6.6,0.1l-0.2,0
				c-0.8,1.4-1.6,2.9-2.3,4.4c0.2,0,3.1-0.1,3.4-0.1c1,0,1.9-0.1,2.9-0.1C170.4,157.6,170.4,157.8,170.4,158z"/>
			<path class="st1" d="M168.9,160.2c-2.2,2.3-4.9,4.9-8.2,5c0.9-1.7,1.9-3.4,2.8-5.2c1.7,0,3.5-0.1,5.1-0.2L168.9,160.2l-0.4-0.4
				l0,0c-1.8-0.1-3.5-0.2-5.3-0.3l-0.2,0l-0.1,0.1c-1.1,1.9-2.2,3.8-3.2,5.7c0,0-0.3,0.5-0.3,0.5
				C163.5,166.3,166.8,163.2,168.9,160.2z"/>
		</g>
		<g>
			<path class="st1" d="M96.7,193.8l-0.4,0.2c0,0-9,4.3-9,4.3c-0.3,1.1-0.5,2.3-0.7,3.5l0,0l0,0c0,0,0.1,0,0.1,0
				c0,0-0.1,0.2-0.1,0.2c0,0-0.1,0.8-0.1,0.8c0,0,0.1-0.8,0.1-0.8c0,0,0.1-0.2,0.1-0.2l0,0c0,0-0.1,0,0,0c0.2-1.1,0.6-2.4,0.8-3.4
				l8.7-3.6c0,2.1-0.1,4.3-0.1,6.4c-3.4,2-6.7,4.1-10.1,6.2c0.1-1.5,0.3-3,0.4-4.5c-0.2,1.6-0.4,3.1-0.6,4.7c3.5-2,7.1-3.9,10.7-5.9
				l0.2-0.1c0-2.4,0-4.8,0-7.2L96.7,193.8z"/>
			<path class="st1" d="M96.7,191.8c-0.1-1.9-0.1-3.8-0.2-5.8l0,0c-0.9,0.2-1.7,0.5-2.4,1c0.7-0.5,1.7-0.8,2.4-1
				c0,1.8-0.2,3.7-0.2,5.5c-2.5,1-5,2.1-7.4,3.2c1.1-3,2.6-5.9,5.3-7.7c-3.1,2-5,5.4-6.3,8.8c3-1.2,5.9-2.5,8.8-3.9L96.7,191.8z"/>
			<path class="st1" d="M85.5,210l0,0.2c-0.1,3.1,0.1,6.1,0.3,9.2c1.9-1.3,3.7-2.7,5.5-4c1.7-1.2,3.3-2.5,5-3.7
				c-3.4,2.2-6.7,4.3-10,6.6c-0.1-1.3-0.1-2.5-0.2-3.8c0-1.4,0-2.7,0-4.1c3-1.8,7.1-4.2,10-6c0,2.2,0.1,5.2,0.2,7.3
				c0.1-2.4,0.2-5.7,0.3-8c-3.3,1.8-7.7,4.4-11,6.2L85.5,210z"/>
			<path class="st1" d="M84.5,201.2c0.5-3.1,1.3-6.1,2.5-9c-1.4,2.6-2.2,5.5-2.8,8.4c-3.4-1.4-8-3.3-11.4-4.6
				c0.8-3.1,1.8-6.2,3.2-9.2c2.9,1.4,8.3,4.1,11.1,5.4c-2.7-1.5-8.3-4.6-11.1-6.1l-0.3-0.1l-0.1,0.3c-1.5,3.1-2.7,6.4-3.5,9.8
				l-0.1,0.3l0.3,0.1C75.9,197.8,80.9,199.8,84.5,201.2z"/>
			<path class="st1" d="M77.3,220.1l6.4-0.5l0.2,0l0-0.2l-0.5-5.4l0.1,5.3l-6.3,0.2l-6.1,0.3c-0.1-2.9-0.3-5.8-0.4-8.7
				c4.2,1,8.4,2,12.6,2.9c-4.4-1.3-8.8-2.6-13.3-3.7c0,3.4,0.2,6.8,0.4,10.2l0.3,0L77.3,220.1z"/>
			<path class="st1" d="M111.1,209.1c0,3.7-0.3,7.4-0.9,11L110,220l-0.1,0.3c-0.5,2.9-1.2,5.8-2,8.7l0.3,0.1
				c4.1,1.5,8.3,3.1,12.4,4.5c1.2-3.4,2-7,2.4-10.6c-0.6,3.4-1.5,6.7-2.7,9.9c-3.8-1.5-7.7-3-11.6-4.4c0.7-2.6,1.3-5.2,1.7-7.9
				c3.3,0.6,9.4,1.8,12.5,2.3c-3.2-0.8-9.5-2.3-12.7-3c0.1-0.6,0.3-1.3,0.5-1.9c4.3,1,8.5,2,12.8,2.9c0.5-4.2,0.4-8.5,0.1-12.8
				C119.4,208.5,115.3,208.8,111.1,209.1z M111.6,209.5c3.8-0.1,7.6-0.4,11.4-0.5c0.3,3.7,0.4,7.6,0,11.3c-4.1-0.8-8.2-1.6-12.3-2.4
				l0,0C111.2,215.2,111.5,212.4,111.6,209.5z"/>
			<path class="st1" d="M87.2,230.6c0,0,0,0.2,0,0.2c0.5,2.3,1.1,5.4,1.7,7.6c2.4-1.6,4.7-3.1,7.1-4.8c-2.2,1.3-4.5,2.6-6.7,4
				c-0.4-2-0.9-4.6-1.3-6.6c2.7-1.5,5.3-3,8-4.6c0,2.4,0.1,4.9,0.2,7.3l-0.1-0.1c0,0,0.2,0.1,0.1,0.1c0.2-2.7,0.2-5.5,0.3-8.2
				c-3,1.6-6,3.3-9,5L87.2,230.6z"/>
			<path class="st1" d="M98.6,226.7c2,1.1,4.5,2.6,6.5,3.7c-0.7,2.1-1.5,4.3-2.2,6.4c-1.4-0.7-2.7-1.4-4.1-2.1
				C98.8,232.4,98.6,229,98.6,226.7c-0.1,2-0.3,6.2-0.3,8.2l0,0.2c1.6,0.8,3.1,1.7,4.7,2.5l0.4,0.2c0.9-2.5,1.7-5.1,2.5-7.7
				C103.9,229.2,100.4,227.6,98.6,226.7z"/>
			<path class="st1" d="M85,229.6c-3.5,1.1-8.9,3-12.5,4.2c-0.6-3.6-0.8-7.3-1.1-10.9c3.7-0.2,8.8-0.5,12.4-0.8
				C84.1,224.3,84.6,227.4,85,229.6c-0.3-2.4-0.6-5.6-0.9-7.9c-3.8,0.1-9.2,0.4-13.1,0.6l-0.3,0l0,0.3c0.2,3.9,0.6,7.8,1.2,11.7
				l0.1,0.4c0,0,0.3-0.1,0.3-0.1C75.9,233.1,81.5,231,85,229.6z"/>
			<path class="st1" d="M83.7,211.9c0-2.9,0-5.8,0.3-8.6c-0.5,2.7-0.7,5.4-0.8,8.1c-3.6-1-8.6-2.3-12.3-3.3c0.2-3.1,0.5-6.2,1.1-9.2
				c3.1,1.2,9,3.3,11.9,4.4c-3-1.3-9-3.8-12.1-5.1l-0.3-0.1c-0.7,3.4-1.2,6.8-1.4,10.3l0,0.3l0.3,0.1
				C74.4,209.6,79.8,211,83.7,211.9z"/>
			<path class="st1" d="M86.1,221.3l-0.2,0.1c0,0,0,0.2,0,0.2c0.3,2.1,0.7,5,1,7.2c0,0,0.3-0.2,0.3-0.2c2.2-1.3,6.5-3.9,8.7-5.2
				c-2.1,1.1-6.3,3.3-8.6,4.6c-0.2-1.9-0.5-4.3-0.8-6.1c0.8-0.5,1.6-1.1,2.3-1.6c2.3-1.6,4.8-3.3,7-5l0.1,4l0.1,4.5l-0.2-0.3
				l0.2,0.4l0,0.1l0-0.1c0,0,0.2-4.5,0.2-4.5c0-0.2,0.1-5,0.1-5c-1.8,1.2-3.6,2.5-5.5,3.7C89.6,218.9,87.5,220.3,86.1,221.3z"/>
			<path class="st1" d="M105.9,188.2c0.1,0,10.5-5.8,10.6-5.8l0.2-0.1c0,0-0.1-0.2-0.1-0.2c-2.9-5.7-7.4-11.3-13.8-13.1
				c-11.3-3.1-21.2,5.6-26,15.1l-0.1,0.1l0.1,0.1c3.8,1.9,7.6,3.8,11.3,5.8c1.2-2,2.7-3.8,4.7-5.1c-2,1.2-3.5,3-4.7,5
				c-3.5-1.9-7.4-3.9-11.1-5.9c4-7.3,10.6-14.1,19.3-15c9-1.1,15.9,5.4,19.8,12.9c-1.3,0.8-10.2,5.9-10.2,5.9c-2.8-4-8.4-6-13-3
				C97.4,182.1,102.9,184,105.9,188.2z"/>
			<path class="st1" d="M111.2,204.2c0-0.3-0.1-0.7-0.1-1C111.2,203.6,111.2,203.9,111.2,204.2z"/>
			<path class="st1" d="M110.4,198.2L110.4,198.2c0.3,1.7,0.6,3.3,0.8,5c-0.2-1.7-0.3-3.6-0.7-4.9c3.1-0.6,7.5-1.4,10.7-2
				c0.7,3.2,1.2,6.4,1.7,9.7c-3.8,0.3-7.7,0.6-11.4,0.9l-0.1-2.4c0,0.7,0.1,2.4,0.1,2.4c3.9-0.2,7.8-0.3,11.7-0.4l0.3,0l0-0.3
				c-0.3-3.6-0.9-7.1-1.8-10.6c-1.9,0.4-3.8,0.9-5.7,1.3L110.4,198.2z"/>
			<path class="st1" d="M111.2,204.5c0-0.2,0-0.3,0-0.3L111.2,204.5z"/>
			<path class="st1" d="M115.2,243.9l0.2-0.2c1.9-2.5,3.4-5.4,4.6-8.3c-4-1.4-8-2.9-12-4.2l0,0l0,0l-0.1,0.3c0,0,0.2-0.3,0.1-0.3
				c3.7,1.6,7.5,3,11.2,4.5c-1.1,2.6-2.5,5-4.2,7.3c-2.8-1.4-6.7-3.4-9.5-4.8c0.6-2,1.5-4.8,2.1-6.9l0.2,0.1l-0.2-0.1l0,0l0,0
				c-0.8,2.1-1.9,5-2.6,7.1c2.9,1.6,7,3.7,10,5.3L115.2,243.9z"/>
			<path class="st1" d="M98.3,224.1l0,0.2l0.1,0.1c1.9,0.9,5.7,2.7,7.6,3.6c-1.8-1-5.3-3-7.2-4c0.1-2.1,0.1-4.9,0.1-7.1
				c2.5,2,5.7,4.5,8.1,6.3c-0.3,1.5-0.6,3.1-1,4.8c0.4-1.6,1-3.3,1.4-5c-2.5-2.1-6.1-5.1-8.6-7.2l-0.6-0.5c0,0,0,0.7,0,0.7
				C98.3,218.4,98.3,221.7,98.3,224.1z"/>
			<path class="st1" d="M85.3,231.7c-4.2,1.4-8.7,3-12.8,4.5l-0.3,0.1c0.1,0.3,0.3,1.4,0.4,1.8l0.1,0.1l4.3,2.4l4.3,2.4
				c0,0,0.1,0.1,0.1,0.1c1.7-1.1,3.8-2.6,5.5-3.7c-1.6,0.9-3.9,2.3-5.5,3.2l-4.1-2.5l-4.1-2.4l-0.2-0.9c3-1.1,6.3-2.3,9.3-3.4
				l2.9-1.1c0.5,2.3,1.1,4.7,1.7,7.1c-0.4-2.5-0.9-5.1-1.4-7.7L85.3,231.7z"/>
			<path class="st1" d="M109.8,196c-0.5-2-1.2-4-2.3-5.9c2.9-1.5,6.8-3.7,9.7-5.3c1.2,2.8,2.3,5.7,3.1,8.7
				C117.6,194.1,112.4,195.3,109.8,196c2.9-0.5,8.4-1.5,11.3-2c-0.9-3.3-1.9-6.6-3.4-9.8l-0.2-0.3c0,0-0.3,0.2-0.3,0.2
				c-3,1.7-7.3,4.2-10.3,6C108.2,191.8,109.1,193.9,109.8,196z"/>
			<path class="st1" d="M98.4,194.3l0,7.5l0,0.2c3.1,1.9,7.4,4.4,10.6,6.4c-2.9-1.9-7.1-4.8-10-6.7l0.1-6.9c2.6,1,6,2.4,8.5,3.4
				c0.9,3.3,1.2,6.7,1.3,10.1c0.1-3.5,0-7.1-0.9-10.5c-2.7-1.2-6.5-2.7-9.2-3.8l-0.5-0.2L98.4,194.3z"/>
			<path class="st1" d="M99,212.9l0.1-7.6c2.9,1.8,6.8,4.3,9.6,6c-0.1,3.1-0.4,6.1-0.9,9.1c0.7-3.1,1.2-6.2,1.4-9.4
				c-3-2-7.2-4.7-10.3-6.6l-0.5-0.3l0,0.6l0,8.4c0,0,0,0.1,0,0.1c2.4,1.8,7,5.4,9.4,7.2L99,212.9z"/>
			<path class="st1" d="M102.3,187.7c2.2,1.8,3.4,4.3,4.3,6.9c-2.5-1.1-5-2.1-7.5-3.1l-0.2-5.4C100.1,186.3,101.3,186.9,102.3,187.7
				c-1-0.8-2.2-1.5-3.5-1.7l0,0.1l-0.3,5.7l0,0.2l0.2,0.1c2.9,1.3,5.8,2.5,8.8,3.5C106.3,192.6,104.7,189.7,102.3,187.7z"/>
			<path class="st1" d="M115.8,260.1c-1.3,0.2-2.6,0.4-3.8,0.6c2.4,1.4,5.5,2.9,8,4.2c-2-1.2-4.1-2.6-6.1-3.8c1.5-0.2,3-0.5,4.5-0.7
				c0.6,1.5,1.1,3,1.5,4.6c-0.2-1.8-0.6-3.5-1.2-5.2C117.8,259.8,116.8,259.9,115.8,260.1z"/>
			<path class="st1" d="M177.9,229.2c-0.5,1.1-0.8,2.3-1.1,3.5c0.9-0.5,2.1-1.4,2.7-2c-0.6,0.3-1.2,0.5-1.7,0.7
				c0.1-0.4,0.3-0.9,0.4-1.4c0.4,0.2,0.9,0.4,1.3,0.7C179.1,230.1,178.5,229.6,177.9,229.2z M179.1,230.9
				C179.1,230.9,179.1,230.9,179.1,230.9L179.1,230.9z M179.3,230.8c0,0-0.1,0-0.1,0.1C179.3,230.9,179.3,230.8,179.3,230.8z"/>
			<path class="st1" d="M145.7,243.3c0,0-0.1,0.3-0.1,0.3c-1.2,2.9-2.2,6-3,9.1c3.2-1.8,7.2-4.4,10.3-6.4c-3,1.6-6.3,3.3-9.3,5
				c0.7-2.4,1.5-4.8,2.3-7.2c2.1,0.7,4.9,1.5,6.9,2.2c-1.9-0.8-5-2-7-2.8L145.7,243.3z"/>
			<path class="st1" d="M181.7,229.3c-1.7-1.8-4-3-6.5-3c-2.4-0.1-4.8,0.9-6.7,2.2l-7.9-8.2c4.5-4.6,10.4-8.5,17-8.1
				c6.7,0.3,12.5,4.9,15.9,10.5c-3.1-5.9-9-10.6-15.9-11.1c-7-0.5-13.3,3.8-18,8.6l0.2,0.2l8.4,8.6l0.2,0.2c2-1.4,4.4-2.5,6.8-2.5
				c2.4,0,4.8,1.1,6.4,3c3.5-2.1,8.3-5,11.8-7.1C190,224.6,185.1,227.3,181.7,229.3z"/>
			<path class="st1" d="M146.5,241.3l-0.1,0.3l0.3,0.1c3,1,6,2.1,9,3.1l0.1-0.1l2.9-1.8c0,0,0.1,0,0.1,0c0.5-1.7,1.5-3.9,2.4-5.7
				c-1,1.7-1.9,3.5-2.6,5.3l-2.9,1.6c-2.8-1.1-5.6-2.1-8.4-3.1c0.6-1.5,1.3-3,2-4.4c0.7-1.5,1.5-2.9,2.3-4.4
				c2.5,1.3,7.3,3.7,9.7,4.9c-2.5-1.5-7.4-4.2-9.9-5.7C149.5,234.8,147.9,238,146.5,241.3z"/>
			<path class="st1" d="M162.5,235.6c1.2-1.9,2.5-3.7,4-5.2c-1.6,1.4-3,3-4.2,4.7c-2.7-1.5-6.5-3.6-9.3-5.2c0.8-1.3,1.7-2.6,2.6-3.8
				c0.9-1.3,1.9-2.5,2.9-3.7c2.1,2.1,6.1,6,8.1,7.9c-1.9-2.2-5.9-6.5-7.9-8.6l-0.2-0.2c-2.3,2.6-4.4,5.4-6.1,8.3l-0.2,0.3l0.3,0.2
				C155.4,231.9,159.5,234.1,162.5,235.6z"/>
			<path class="st1" d="M163.4,237.7c-0.7,1.3-1.5,2.7-2.2,4.1c2.3-1.3,4.6-3,6.8-4.4c-1.8,1-3.5,1.7-5.1,2.6c0.3-0.6,0.7-1.3,1-1.9
				c1.4-0.2,2.7-0.5,4.2-0.7c-1.4,0.1-3.1,0-4.6,0.1L163.4,237.7z"/>
			<path class="st1" d="M164.6,235.7l0.8-0.1c3-0.3,6-0.6,9-1c0.5-1.7,1-4,1.4-5.7c-0.5,1.5-1.3,3.7-1.8,5.3
				c-2.6,0.2-5.3,0.4-7.9,0.7c2.4-3.1,5.6-6,9.7-5.9C171,228.3,167.1,232.2,164.6,235.7z"/>
		</g>
		<g>
			<path class="st1" d="M56.3,129.4c-0.3-0.8-1.3-1.6-2.9-2.3c-0.2-0.1-0.4-0.1-0.8-0.2c-0.3-0.1-0.5-0.1-0.8-0.1
				c-0.1,0-0.3,0-0.5,0c-0.2,0-0.3,0.1-0.3,0.3c0,0.1,0.1,0.2,0.2,0.3c0.2,0.2,0.5,0.4,1,0.6c0.5,0.2,0.9,0.5,1.3,0.8
				c0.6,0.7,0.8,1.4,0.8,2.3c0,1.8-1,4.2-2.9,7.3c-1.3,2-2.5,3.6-3.6,4.8l-0.5,0.5c-4.1,4.4-7.4,7-9.9,7.8c-0.2,0.1-0.4,0.1-0.6,0.1
				s-0.4,0-0.7-0.1c-0.3-0.1-0.5-0.3-0.7-0.7c-0.1-0.4-0.2-0.7-0.2-1.1c0-2.1,1.6-5.4,4.7-10.1c0.8-1.1,1.2-2,1.2-2.6
				c-0.1-0.6-0.4-1.2-0.9-1.8c-0.5-0.5-1-0.7-1.6-0.7l-0.3,0c-0.8,0.3-1.3,0.8-1.4,1.6c-0.2,0.5-0.5,0.8-1,1.1
				c-2.1,1.4-4.2,2.9-6.2,4.5c-0.8,0.6-1.6,1.2-2.4,1.9c-1,0.8-1.7,1.3-2.1,1.3c0-0.3,0.2-0.7,0.4-1.1c0,0,0,0,0-0.1
				c1.4-2.1,3.5-4.7,6.4-7.9c0.4-0.5,0.6-0.9,0.6-1.3c0-0.1-0.1-0.4-0.2-0.7c-0.1-0.3-0.5-0.7-1.1-1.1c-0.6-0.4-1.2-0.6-1.7-0.6
				c-0.5,0-0.9,0.4-1.2,1.1c-0.3,1-0.5,1.7-0.7,2.1c-0.2,0.4-0.5,0.8-0.8,1.4c-1.6,2.3-3.3,4.6-4.8,6.9c-0.2,0.3-0.4,0.5-0.5,0.7
				c-0.8,1-1.2,1.9-1.2,2.6c0,0.9,0.4,1.7,1.2,2.4c0.5,0.4,1,0.6,1.7,0.6h0.1c1-0.1,2.3-0.9,3.8-2.3c1.9-1.7,3.9-3.4,5.9-5
				c0.8-0.7,1.4-1.1,1.9-1.2v0.2c0,0.3-0.1,0.7-0.4,1c-0.5,1-1,1.9-1.5,2.9c-0.5,1.1-0.7,2.2-0.7,3.2c0,1,0.3,2.1,0.9,3.2
				c0.8,1.3,1.7,2.1,2.7,2.4c0.4,0.1,0.8,0.2,1.3,0.2c2.9,0,6.9-2.9,12.1-8.6c1.6-1.8,3-3.5,4.1-5.1c0.6-1,1.2-2.1,1.8-3.4
				c1.1-2.3,1.6-4.3,1.6-5.8C56.8,131.1,56.6,130.3,56.3,129.4z"/>
			<path class="st1" d="M93.8,136.2L93.8,136.2c1.1-0.1,1.3,0.4,1.3,1.2l0.1,0.4c0.2,0.8,0.6,1.1,1.2,1c0.3,0,0.6-0.2,0.9-0.4
				c0.4-0.3,0.6-0.9,0.5-1.7c-0.1-1-0.5-1.7-1.4-2.3c-0.9-0.6-1.8-0.8-2.9-0.8c-1.6,0.2-3,0.7-4.3,1.6c-1.3,0.9-2.5,1.8-3.6,2.9
				c-0.6,0.5-1.1,1-1.7,1.5c-0.3,0.2-0.6,0.4-0.8,0.7c-0.3,0.3-0.6,0.5-0.9,0.8H82c0,0-0.1-0.1-0.1-0.1c0-0.4,0.6-1.6,1.9-3.6
				c0.8-1.1,1.1-2,1.1-2.5c0-0.2-0.1-0.4-0.2-0.7c-0.1-0.3-0.6-0.6-1.4-1c-0.5-0.2-0.9-0.3-1.3-0.3c-0.1,0-0.3,0.1-0.5,0.2
				c-0.2,0.1-0.4,0.5-0.6,1.3c-0.2,0.7-0.4,1.4-0.6,2.1c-0.2,0.1-0.4,0.4-0.6,0.8c-1.3,2-2.7,3.4-4.3,4.4c-1.6,1-3.5,1.8-5.7,2.3
				c-0.2,0.1-0.4,0.1-0.6,0.1c-0.3,0-0.4-0.1-0.4-0.2c0-0.2,0.3-0.7,0.8-1.4c0.3-0.4,0.7-1,1-1.6c0.4-1,0.7-1.9,0.7-2.7
				c0-0.4-0.1-0.9-0.3-1.6s-1-1.5-2.4-2.2c-0.9-0.4-1.8-0.7-2.6-0.7c-0.1,0-0.4,0-0.9,0.1c-0.8,0.1-2.2,1.5-4,4.2
				c-0.9,1.2-1.6,2.2-2.3,2.9s-1.3,1.6-1.9,2.4s-1,1.7-1.2,2.6c-0.1,0.3-0.1,0.6-0.1,0.9c0,0.6,0.2,1.3,0.5,1.9c0.8,1.3,1.7,2,2.8,2
				c0,0,0.3,0,0.9,0c0.6,0,1.4-0.4,2.6-1.3c1.5-1,2.4-1.8,2.7-2.2c0.3-0.3,0.6-0.5,0.8-0.5c0.2,0,0.5,0.1,1,0.2
				c0.7,0.2,1.5,0.3,2.2,0.3c0.7,0,1.4-0.1,2.1-0.3c1.8-0.5,3.5-1.3,5.3-2.4c0.2-0.1,0.4-0.3,0.6-0.4c-0.5,1.1-1,2-1.5,2.7
				c-0.5,0.7-0.8,1.4-1,2c-0.1,0.2-0.1,0.4-0.1,0.5c0.1,0.5,0.4,1,0.9,1.6c0.5,0.4,1,0.6,1.4,0.5c0.5-0.1,1-0.5,1.6-1.5
				c0-0.1,0,0,0.2-0.2c1-1.4,2.5-3,4.3-5c1.8-1.9,3.8-3.7,5.8-5.4C90.6,137.5,92.4,136.6,93.8,136.2z M62.5,144.8
				c-2,1.4-3.3,2.2-4,2.3c-0.3-0.1-0.4-0.2-0.4-0.4c0-0.5,0.4-1.5,1.3-2.8c0.4-0.5,0.6-0.8,0.7-1c0.5-0.8,1-1.3,1.3-1.3
				c0,0,0.1,0,0.2,0c0.1,0,0.4,0.5,0.9,1.3c0.3,0.5,0.4,0.8,0.4,1C63,144.2,62.8,144.5,62.5,144.8z M67.7,139.3
				c-0.3,0.5-0.7,1-1.2,1.5c-0.5,0.6-0.9,1-1.2,1.2c-0.1,0.1-0.2,0.1-0.3,0.1c-0.4,0-0.6-0.5-0.6-1.5c0-0.2-0.1-0.4-0.1-0.7
				c-0.1-0.4-0.1-0.8-0.1-1.1c0-0.3,0.1-0.6,0.3-0.8c0.3-0.4,0.8-0.6,1.3-0.6c0.1,0,0.2,0,0.4,0c0.2,0,0.5,0.1,0.8,0.1
				s0.6,0.2,0.7,0.3c0.2,0.1,0.3,0.3,0.3,0.5C68,138.6,67.9,138.9,67.7,139.3z"/>
			<path class="st1" d="M104.9,145.8c-1.5-0.1-3-0.1-4.4-0.1c-0.8,0-1.2-0.1-1.3-0.2c-0.1-0.1-0.1-0.2-0.1-0.2c0-0.4,2.2-1.8,6.5-4
				c1.7-0.9,2.8-1.5,3.3-1.8c1.6-1,2.8-1.5,3.8-1.7c0.5-0.1,0.8-0.2,1-0.3c0.6-0.3,0.9-0.8,0.9-1.5c0-0.8-0.2-1.4-0.7-1.9
				c-0.4-0.4-0.8-0.6-1.3-0.6c-0.1,0-0.2,0-0.3,0c-0.5,0.1-1.1,0.4-1.6,0.8c-0.8,0.6-1.7,1.2-2.5,1.8c-1.1,0.7-2.3,1.4-3.5,2.1
				c-1.4,0.8-2.3,1.3-2.6,1.3c-0.1,0-0.2-0.1-0.2-0.1c0-0.2,0.6-1.2,1.9-2.7c0.5-0.6,1-1.2,1.4-1.8c1.7-2.3,4.2-5.6,7.6-10
				c0.3-0.4,1.7-2.2,4.2-5.4c0.5-0.7,1-1.4,1.6-2.2c0.7-1,1-1.9,1-2.6c0-0.8-0.4-1.3-1.2-1.6c-0.7-0.3-1.2-0.5-1.6-0.5
				c-0.5,0-0.8,0.5-1,1.4c-0.2,0.8-0.3,1.4-0.4,1.8c-0.1,0.4-0.4,0.9-0.7,1.4c-0.3,0.4-0.6,0.9-0.9,1.3c-0.2,0.3-0.4,0.5-0.6,0.8
				c-0.7,1-1.4,1.9-2.1,2.9c-0.5,0.7-1.1,1.5-1.6,2.2c-0.8,1.2-1.7,2.3-2.6,3.5c-0.7,0.8-1.3,1.7-1.9,2.5c-0.8,1.1-3.3,4.4-7.5,10
				c-2.1,2.8-4.2,5.6-6.2,8.3c-0.9,1.2-1.7,2.4-2.5,3.6c-0.7,1-1.3,1.9-1.9,2.7c-0.6,0.8-1.1,1.5-1.5,2.2c-0.2,0.4-0.2,0.7-0.2,1
				c0,0.4,0.1,0.7,0.3,1.1c0.4,0.6,1,1,1.8,1.2c0.5,0,1-0.2,1.4-0.7c0.8-0.8,1.2-1.7,1.2-2.7c0-0.4,0.1-0.9,0.4-1.5
				c0.9-1.6,2.2-3.7,4-6.2l0.3-0.4c0.3-0.5,0.6-0.7,0.9-0.7c0.2,0,0.4,0.1,0.7,0.1c1.1,0.3,1.9,0.5,2.6,0.5c0.7,0,1.1,0,1.4,0
				c1,0,2,0,3-0.1c0.4,0,0.7,0,1.1,0h1.1c0.9,0,1.7-0.1,2.5-0.1c0.4-0.1,0.7-0.2,1.1-0.5s0.5-0.6,0.5-1
				C109.7,146.3,108.1,145.9,104.9,145.8z"/>
			<path class="st1" d="M131.6,133.4c-1.8,0-3.8,0.6-6,1.8c-1.4,0.7-2.2,1.1-2.4,1.1c-0.1,0-0.1,0-0.1-0.1c0-0.2,0.4-0.7,1.1-1.6
				c0.3-0.4,0.6-0.8,0.9-1c1.3-1.6,2.9-3.9,5-6.9c1.6-2.2,2.6-3.7,3.2-4.5c0.8-1,1.3-1.8,1.5-2.2c0-0.2,0.1-0.3,0.1-0.5
				c0-0.7-0.4-1.3-1.2-1.8c-0.5-0.4-0.9-0.5-1.3-0.5c-0.4,0-0.8,0.4-1.2,1.2c-1.6,3.2-3.4,6.2-5.4,9c-3.1,4.4-6,8.3-8.8,11.7
				c-0.7,0.8-1.3,1.6-1.9,2.4c-1.3,1.6-2.1,2.7-2.5,3.1c-0.8,0.8-1.3,1.6-1.3,2.2c0,0.1,0,0.3,0,0.4c0.2,1,0.8,1.6,1.7,1.9
				c0.6,0.2,1.3,0.6,2,1.1c0.8,0.6,1.5,0.9,2.1,0.9c0.5,0.1,0.9,0.1,1.2,0.1c0.7,0,1.3-0.1,2.1-0.2c1.3-0.2,2.7-0.7,4-1.5
				c2.1-1.1,3.9-2.4,5.4-3.7c1.5-1.3,2.9-2.9,4.3-4.9c1.1-1.5,1.7-3.1,1.7-4.1c0-0.4-0.1-0.9-0.2-1.3
				C134.7,134.2,133.4,133.4,131.6,133.4z M131.7,139.3c-2.3,3.3-5.3,5.9-9,7.9c-1.7,1-3.4,1.5-5.1,1.5c-0.9,0-1.4-0.3-1.7-0.9
				c-0.1-0.2-0.1-0.5-0.1-0.7c0-0.5,0.2-0.9,0.5-1.3c1.4-2,3.6-4,6.6-5.9c3-2,5.6-3.2,8-3.8c0.3-0.1,0.5-0.1,0.8-0.1
				c0.6,0,1,0.2,1,0.6C132.8,137.5,132.4,138.4,131.7,139.3z"/>
			<path class="st1" d="M150.8,137.4c-0.4-0.9-0.8-1.5-1.5-1.8c-0.6-0.4-1.4-0.6-2.3-0.8c-0.6-0.1-1.3-0.3-1.9-0.5
				c-0.4-0.1-0.7-0.2-0.9-0.2c-0.2,0-0.5,0.1-0.8,0.2c-0.5,0.4-1.1,1-1.7,1.8c-1.7,2.1-3,4-4.1,5.6c0,0-0.1,0.1-0.1,0.1
				c-1,1.5-1.5,2.7-1.5,3.6c0,0.2,0,0.4,0.1,0.6c0.3,1.8,1.4,3.2,3.1,3.7c0.2,0,0.4,0.1,0.6,0.1c0.7,0,1.4-0.2,2.1-0.6
				c1.5-0.8,3.1-2.1,4.9-3.9c0.8-0.8,1.6-1.7,2.2-2.4c1.2-1.5,1.9-2.8,1.9-4.1C151.1,138.3,151,137.9,150.8,137.4z M141.7,145.7
				c-0.9,0.6-1.6,0.9-2,0.9c-0.2,0-0.3-0.1-0.4-0.2l0-0.2c0-0.5,0.2-1.1,0.7-1.9c1-1.6,2.1-3.1,3.5-4.7c0.4-0.4,0.7-0.8,0.9-1
				c0.2-0.2,0.6-0.5,1.1-0.7c0.9-0.5,1.6-0.7,2.1-0.7c0.1,0,0.2,0,0.3,0c0.3,0.1,0.5,0.4,0.5,0.9
				C148.4,140.2,146.1,142.7,141.7,145.7z"/>
			<path class="st1" d="M216.1,137.4c-0.4,0.4-3.5,2-9.2,4.8c-3.2,1.5-5.2,2.5-6.1,3.2c-0.5,0.4-1,0.6-1.3,0.6
				c-0.4,0-0.8-0.4-1.2-1.2c-1.3-2.3-2.2-4.3-2.7-5.9l0-0.2c0-0.3,0.1-0.6,0.3-0.9c0.6-0.9,1.8-1.9,3.7-2.9c1.3-0.7,2.4-1.2,3.3-1.5
				c0.6-0.2,1.2-0.2,2-0.2c1.1,0,1.9-0.2,2.4-0.5c0.5-0.5,0.8-1.1,0.8-1.7c0-0.1,0-0.4-0.1-0.8c-0.1-0.4-0.4-0.9-0.9-1.5
				c-0.6-0.7-1.1-1-1.6-1c-0.4,0-0.8,0.2-1.4,0.7c-1.8,1.3-3.7,2.5-5.9,3.7c-2.2,1.2-3.9,2.2-4.8,3c-0.5,0.6-0.8,1.3-0.8,2.1
				c0,0,0,0.1,0,0.1c-0.6,0.3-1.4,1.1-2.5,2.4l-0.7,0.7c-1.3,1.2-2.5,2.4-3.8,3.7c-6.8,6.7-11.3,10.1-13.7,10.1
				c-0.6,0-0.9-0.2-1.1-0.7c-0.1-0.3-0.1-0.6-0.1-0.9c0-0.7,0.2-1.5,0.5-2.5c1.7-4.5,5.7-10.6,11.9-18.1c1.4-1.8,2.5-3.1,3.4-3.9
				c0.9-0.7,2.2-0.8,3.4-0.8c0.6,0,2.1-0.1,4.4-0.2c2.7-0.1,5.5-0.2,8.2-0.2c0.4,0,1,0,1.6,0c0.3,0,0.7,0,1.1,0
				c0.5,0,0.9-0.1,1.3-0.4c0.4-0.2,0.6-0.7,0.6-1.3c-0.1-0.6-0.3-1-0.8-1.2c-0.5-0.2-1-0.2-1.5-0.2l-1.2,0c-1.7,0-3.5,0.1-5.2,0.2
				c-3.2,0.3-5.3,0.4-6.2,0.4c-1.3,0-1.9-0.1-1.9-0.3c0-0.3,0.4-0.8,1.3-1.6c0.6-0.6,1.3-1.1,2-1.6c0.6-0.4,1.1-0.8,1.6-1.3
				c0.3-0.3,0.4-0.6,0.4-1c0-0.1-0.1-0.4-0.2-0.7c-0.1-0.3-0.4-0.7-0.9-1c-0.5-0.4-1-0.6-1.4-0.7c-0.5,0-1.1,0.5-1.8,1.5
				c-0.9,1-1.7,2-2.5,2.9c-1.1,1.3-1.9,2.2-2.4,2.7c-0.3,0.4-0.5,0.7-0.8,0.9c-0.3,0.2-0.8,0.3-1.6,0.3c-1.8,0.1-3.6,0.2-5.4,0.2
				c-1.5,0-2.8-0.1-4.1-0.4c-0.6-0.1-1-0.3-1.4-0.5c-0.5-0.3-1-0.4-1.4-0.4c-0.4,0-0.7,0.2-0.8,0.5c-0.2,0.4-0.3,0.9-0.3,1.4
				c0,1.1,0.3,1.9,0.9,2.3c0.5,0.3,1.1,0.5,1.9,0.5c0.3,0,1.1-0.1,2.4-0.2c2.3-0.2,3.9-0.3,4.9-0.3c0.7,0,1.2,0,1.6,0.1
				c-0.1,0.2-0.1,0.4-0.2,0.5c-0.1,0.2-0.6,0.8-1.5,1.8c-1.8,2.1-3.5,4.2-5,6.3c0,0,0,0-0.1,0c-0.1,0-0.2,0-0.3,0.1
				c-0.2,0.1-0.4,0.3-0.7,0.8c-1.3,2-2.7,3.4-4.3,4.4c-1.6,1-3.5,1.8-5.7,2.3c-0.2,0.1-0.4,0.1-0.6,0.1c-0.3,0-0.4-0.1-0.4-0.2
				c0-0.2,0.3-0.7,0.8-1.4c0.3-0.4,0.7-1,1-1.6c0.4-1,0.7-1.9,0.7-2.7c0-0.4-0.1-0.9-0.3-1.6c-0.2-0.7-1-1.5-2.4-2.2
				c-0.9-0.4-1.8-0.7-2.6-0.7c-0.1,0-0.4,0-0.9,0.1c-0.8,0.1-2.2,1.5-4,4.2c-0.9,1.2-1.6,2.2-2.3,2.9c-0.7,0.8-1.3,1.6-1.9,2.4
				c-0.6,0.8-1,1.7-1.2,2.6c-0.1,0.3-0.1,0.6-0.1,0.9c0,0.6,0.2,1.3,0.5,1.9c0.8,1.3,1.7,2,2.8,2c0,0,0.3,0,0.9,0
				c0.6,0,1.4-0.4,2.6-1.3c1.5-1,2.4-1.8,2.7-2.2c0.3-0.3,0.6-0.5,0.8-0.5c0.2,0,0.5,0.1,1,0.2c0.7,0.2,1.5,0.3,2.2,0.3
				c0.7,0,1.4-0.1,2.1-0.3c1.4-0.4,2.9-1,4.4-1.8c-0.1,0.2-0.2,0.4-0.3,0.5l-0.2,0.5c-1.3,2.2-1.9,4.1-1.9,5.4
				c0,1.1,0.3,2.2,0.9,3.2c0.8,1.2,1.6,1.9,2.5,2.2c0.4,0.1,0.8,0.2,1.3,0.2c2.1,0,5.1-1.8,9.1-5.5c1.5-1.3,2.9-2.7,4.3-4.1l1.8-1.7
				c2.6-2.3,4.4-4.2,5.5-5.9c0.4,1.1,1.1,2.3,1.9,3.8c0.6,1,1,1.8,1.1,2.2c0.3,0.5,0.5,1,0.5,1.3c0,0.1,0,0.2,0,0.3
				c0,0.2-0.4,0.4-1.1,0.8c-3.5,1.8-7.2,4.1-11.1,6.9c-1.2,0.8-2.2,1.9-3,3.1c-0.5,0.8-0.7,1.6-0.7,2.5c0,0.5,0.1,1.1,0.2,1.6
				c0.5,1.2,1.2,1.9,2.2,2.2c0.6,0.2,1.2,0.3,1.8,0.3c1.4,0,2.9-0.4,4.5-1.1c1.6-0.8,3.2-1.7,4.6-2.8c3.2-2.3,5-5.3,5.5-8.7
				c0-0.1,0-0.3,0-0.4c0-0.5-0.1-1.3-0.1-1.9c0-0.3,0-0.5,0.1-0.6c0.4-0.5,3.4-2,8.8-4.5c3-1.4,6-2.8,8.9-4.4c0.1,0,0.1,0,0.1-0.1
				c1.4-0.7,2.1-1.3,2.1-2C219.4,136.5,218.2,136.2,216.1,137.4z M157.6,144.8c-2,1.4-3.3,2.2-4,2.3c-0.3-0.1-0.4-0.2-0.4-0.4
				c0-0.5,0.4-1.5,1.3-2.8c0.4-0.5,0.6-0.8,0.7-1c0.5-0.8,1-1.3,1.3-1.3c0,0,0.1,0,0.2,0c0.1,0,0.4,0.5,0.9,1.3
				c0.3,0.5,0.4,0.8,0.4,1C158,144.2,157.9,144.5,157.6,144.8z M162.7,139.3c-0.3,0.5-0.7,1-1.2,1.5c-0.5,0.6-0.9,1-1.2,1.2
				c-0.1,0.1-0.2,0.1-0.3,0.1c-0.4,0-0.6-0.5-0.6-1.5c0-0.2-0.1-0.4-0.1-0.7c-0.1-0.4-0.1-0.8-0.1-1.1c0-0.3,0.1-0.6,0.3-0.8
				c0.3-0.4,0.8-0.6,1.3-0.6c0.1,0,0.2,0,0.4,0c0.2,0,0.5,0.1,0.8,0.1c0.3,0.1,0.6,0.2,0.7,0.3c0.2,0.1,0.3,0.3,0.3,0.5
				C163.1,138.6,162.9,138.9,162.7,139.3z M197,151.7c0,0.2-0.1,0.5-0.2,0.9c-0.1,0.4-0.3,0.6-0.4,0.8c-1.4,2.3-3.2,4.2-5.4,5.7
				c-0.4,0.3-1.1,0.7-2.1,1.3c-0.9,0.5-1.9,0.9-2.8,1.2c-0.4,0.1-0.8,0.2-1.1,0.2c-0.4,0-0.7-0.1-1-0.3c-0.1-0.2-0.2-0.3-0.2-0.5
				c0-0.4,0.3-1,0.9-1.7c1.5-1.6,3.9-3.6,7.5-5.8c1.3-0.8,2.4-1.6,3.4-2.4c0.4-0.3,0.7-0.4,0.9-0.4c0.1,0,0.2,0,0.2,0.1
				c0.1,0.2,0.2,0.4,0.2,0.6C197,151.4,197,151.5,197,151.7z"/>
		</g>
		<path class="st1" d="M120,12.1l6.2,3.6l2.8,1.6l10.8,6.2l48.7,28.1l34.7,20l6.4,3.7v126.4l-32.7,18.9l-13.3,7.6l-2.4,1.4l0,0h0
			l-2.4,1.4l-3.3,1.9l-1.3,0.7l0,0l-0.3,0.2l-5.5,3.2l-6.7,3.9l-1.4,0.8h0l-2.4,1.4l-3.4,2l-3,1.7l-11,6.4L120,264.9l-3.2-1.8
			l-35.2-20.3l-9.6-5.6l-61.4-35.5V75.3l87.4-50.5l11.2-6.5l2.6-1.5L120,12.1 M120,0l-13.4,7.8l-2.6,1.5l-11.2,6.5L0.1,69.2v138.5
			l66.7,38.5l9.6,5.6l35.2,20.3l7.9,4.6l0.5,0.3l25.6-14.8l11-6.4l3-1.7l3.4-2h0l3.8-2.2l6.7-3.9l5.5-3.2l0,0l1.6-0.9l3.3-1.9h0
			l2.5-1.4l2.4-1.4l13.2-7.6l37.9-21.9V69.2l-11.7-6.7l-34.7-20l-48.7-28.1l-10.8-6.2l-2.8-1.6L120,0L120,0z"/>
	</g>
</g>
<g id="Layer_2">
</g>
</svg>
